<svg xmlns="http://www.w3.org/2000/svg" viewBox="0 -0.5 237 120" shape-rendering="crispEdges">
<metadata>Made with Pixels to Svg https://codepen.io/shshaw/pen/XbxvNj</metadata>
<path stroke="#0d2b45" d="M0 0h4M12 0h4M22 0h8M36 0h4M42 0h2M46 0h24M72 0h4M86 0h13M103 0h2M0 1h4M12 1h4M22 1h8M36 1h4M42 1h2M46 1h24M72 1h4M86 1h13M103 1h2M12 2h28M42 2h2M72 2h4M86 2h11M105 2h2M12 3h28M42 3h2M72 3h4M86 3h11M105 3h2M12 4h28M42 4h2M46 4h24M72 4h4M86 4h11M107 4h130M12 5h28M42 5h2M46 5h24M72 5h4M86 5h11M107 5h130M10 6h2M40 6h4M46 6h2M68 6h2M72 6h4M86 6h11M107 6h130M10 7h2M40 7h4M46 7h2M68 7h2M72 7h4M86 7h11M107 7h130M0 8h8M10 8h2M40 8h4M46 8h2M68 8h2M72 8h4M86 8h11M107 8h130M0 9h8M10 9h2M40 9h4M46 9h2M68 9h2M72 9h4M86 9h11M107 9h130M6 10h2M10 10h2M14 10h6M32 10h6M40 10h4M46 10h2M68 10h2M72 10h4M86 10h11M107 10h130M6 11h2M10 11h2M14 11h6M32 11h6M40 11h4M46 11h2M68 11h2M72 11h4M86 11h11M107 11h130M6 12h2M10 12h2M14 12h2M36 12h2M40 12h4M46 12h2M50 12h2M68 12h2M72 12h4M86 12h11M107 12h130M6 13h2M10 13h2M14 13h2M36 13h2M40 13h4M46 13h2M50 13h2M68 13h2M72 13h4M86 13h11M107 13h130M6 14h2M10 14h2M14 14h24M40 14h4M46 14h2M50 14h2M68 14h2M72 14h4M86 14h11M107 14h6M233 14h4M6 15h2M10 15h2M14 15h24M40 15h4M46 15h2M50 15h2M68 15h2M72 15h4M86 15h11M107 15h6M233 15h4M6 16h2M10 16h2M14 16h2M36 16h2M40 16h4M46 16h2M50 16h2M68 16h2M72 16h4M86 16h11M107 16h4M235 16h2M6 17h2M10 17h2M14 17h2M36 17h2M40 17h4M46 17h2M50 17h2M68 17h2M72 17h4M86 17h11M107 17h4M235 17h2M6 18h2M10 18h2M14 18h24M40 18h4M46 18h2M68 18h2M72 18h4M86 18h11M107 18h6M233 18h4M6 19h2M10 19h2M14 19h24M40 19h4M46 19h2M68 19h2M72 19h4M86 19h11M107 19h6M233 19h4M6 20h2M10 20h2M14 20h2M36 20h2M40 20h4M46 20h2M68 20h2M72 20h4M86 20h11M107 20h4M235 20h2M6 21h2M10 21h2M14 21h2M36 21h2M40 21h4M46 21h2M68 21h2M72 21h4M86 21h11M107 21h4M235 21h2M6 22h2M10 22h2M14 22h24M40 22h4M46 22h24M72 22h4M86 22h11M107 22h6M6 23h2M10 23h2M14 23h24M40 23h4M46 23h24M72 23h4M86 23h11M107 23h6M0 24h8M10 24h2M40 24h4M72 24h4M86 24h11M107 24h4M131 24h20M179 24h20M0 25h8M10 25h2M40 25h4M72 25h4M86 25h11M107 25h4M131 25h20M179 25h20M10 26h2M40 26h4M72 26h4M86 26h11M107 26h6M131 26h20M179 26h20M10 27h2M40 27h4M72 27h4M86 27h11M107 27h6M131 27h20M179 27h20M0 28h6M10 28h2M18 28h16M40 28h4M50 28h16M72 28h4M86 28h11M107 28h4M131 28h20M179 28h20M0 29h6M10 29h2M18 29h16M40 29h4M50 29h16M72 29h4M86 29h11M107 29h4M131 29h20M179 29h20M74 30h2M86 30h11M107 30h6M131 30h20M179 30h20M74 31h2M86 31h11M107 31h6M131 31h20M179 31h20M74 32h2M86 32h11M107 32h4M74 33h2M86 33h11M107 33h4M74 34h2M86 34h11M107 34h6M131 34h20M179 34h20M74 35h2M86 35h11M107 35h6M131 35h20M179 35h20M30 36h2M62 36h2M74 36h2M86 36h11M107 36h4M131 36h20M179 36h20M30 37h2M62 37h2M74 37h2M86 37h11M107 37h4M131 37h20M179 37h20M74 38h2M86 38h11M107 38h6M131 38h20M179 38h20M205 38h2M235 38h2M74 39h2M86 39h11M107 39h6M131 39h20M179 39h20M205 39h2M235 39h2M74 40h2M86 40h11M107 40h4M131 40h20M179 40h6M193 40h6M205 40h2M209 40h24M235 40h2M74 41h2M86 41h11M107 41h4M131 41h20M179 41h6M193 41h6M205 41h2M209 41h24M235 41h2M74 42h2M86 42h11M107 42h6M131 42h20M179 42h4M195 42h4M205 42h2M209 42h2M231 42h2M235 42h2M74 43h2M86 43h11M107 43h6M131 43h20M179 43h4M195 43h4M205 43h2M209 43h2M231 43h2M235 43h2M2 44h2M18 44h2M50 44h2M62 44h2M74 44h2M86 44h11M107 44h4M131 44h20M179 44h4M195 44h4M205 44h2M209 44h2M213 44h2M217 44h8M227 44h2M231 44h2M235 44h2M2 45h2M18 45h2M50 45h2M62 45h2M74 45h2M86 45h11M107 45h4M131 45h20M179 45h4M195 45h4M205 45h2M209 45h2M213 45h2M217 45h8M227 45h2M231 45h2M235 45h2M74 46h2M86 46h11M107 46h6M205 46h2M209 46h2M231 46h2M235 46h2M74 47h2M86 47h11M107 47h6M205 47h2M209 47h2M231 47h2M235 47h2M74 48h2M86 48h11M107 48h4M205 48h2M209 48h2M231 48h2M235 48h2M74 49h2M86 49h11M107 49h4M205 49h2M209 49h2M231 49h2M235 49h2M74 50h2M86 50h11M107 50h6M205 50h2M209 50h24M235 50h2M74 51h2M86 51h11M107 51h6M205 51h2M209 51h24M235 51h2M2 52h2M74 52h2M86 52h11M107 52h4M205 52h2M235 52h2M2 53h2M74 53h2M86 53h11M107 53h4M205 53h2M235 53h2M18 54h2M22 54h2M32 54h2M36 54h2M74 54h2M86 54h11M107 54h6M205 54h2M209 54h24M235 54h2M18 55h2M22 55h2M32 55h2M36 55h2M74 55h2M86 55h11M107 55h6M205 55h2M209 55h24M235 55h2M18 56h2M34 56h4M74 56h2M86 56h11M107 56h4M205 56h2M209 56h2M231 56h2M235 56h2M18 57h2M34 57h4M74 57h2M86 57h11M107 57h4M205 57h2M209 57h2M231 57h2M235 57h2M18 58h2M34 58h4M74 58h2M86 58h11M107 58h6M205 58h2M209 58h2M213 58h2M217 58h8M227 58h2M231 58h2M235 58h2M18 59h2M34 59h4M74 59h2M86 59h11M107 59h6M205 59h2M209 59h2M213 59h2M217 59h8M227 59h2M231 59h2M235 59h2M10 60h2M20 60h2M34 60h2M74 60h2M86 60h11M107 60h4M205 60h2M209 60h2M231 60h2M235 60h2M10 61h2M20 61h2M34 61h2M74 61h2M86 61h11M107 61h4M205 61h2M209 61h2M231 61h2M235 61h2M20 62h16M74 62h2M86 62h11M107 62h2M205 62h2M209 62h2M231 62h2M235 62h2M20 63h16M74 63h2M86 63h11M107 63h2M205 63h2M209 63h2M231 63h2M235 63h2M20 64h2M24 64h2M28 64h2M32 64h4M74 64h2M86 64h11M107 64h2M117 64h16M141 64h32M205 64h2M209 64h24M235 64h2M20 65h2M24 65h2M28 65h2M32 65h4M74 65h2M86 65h11M107 65h2M117 65h16M141 65h32M205 65h2M209 65h24M235 65h2M20 66h2M26 66h2M30 66h6M74 66h2M86 66h11M107 66h4M115 66h20M139 66h34M193 66h4M205 66h2M213 66h4M235 66h2M20 67h2M26 67h2M30 67h6M74 67h2M86 67h11M107 67h4M115 67h20M139 67h34M193 67h4M205 67h2M213 67h4M235 67h2M22 68h2M30 68h4M74 68h2M86 68h11M107 68h4M115 68h2M133 68h2M139 68h34M191 68h2M197 68h2M205 68h2M209 68h4M217 68h16M235 68h2M22 69h2M30 69h4M74 69h2M86 69h11M107 69h4M115 69h2M133 69h2M139 69h34M191 69h2M197 69h2M205 69h2M209 69h4M217 69h16M235 69h2M74 70h2M86 70h11M107 70h2M173 70h2M191 70h2M199 70h2M209 70h2M217 70h2M231 70h2M235 70h2M74 71h2M86 71h11M107 71h2M173 71h2M191 71h2M199 71h2M209 71h2M217 71h2M231 71h2M235 71h2M74 72h2M86 72h11M107 72h2M173 72h2M177 72h16M217 72h8M227 72h2M231 72h2M235 72h2M74 73h2M86 73h11M107 73h2M173 73h2M177 73h16M217 73h8M227 73h2M231 73h2M235 73h2M12 74h2M38 74h2M74 74h2M86 74h11M107 74h2M173 74h2M177 74h2M191 74h2M217 74h2M231 74h2M235 74h2M12 75h2M38 75h2M74 75h2M86 75h11M107 75h2M173 75h2M177 75h2M191 75h2M217 75h2M231 75h2M235 75h2M12 76h2M16 76h20M38 76h2M74 76h2M86 76h11M107 76h2M173 76h2M177 76h2M181 76h2M185 76h8M217 76h2M231 76h2M235 76h2M12 77h2M16 77h20M38 77h2M74 77h2M86 77h11M107 77h2M173 77h2M177 77h2M181 77h2M185 77h8M217 77h2M231 77h2M235 77h2M12 78h2M16 78h2M34 78h2M38 78h2M74 78h2M86 78h11M107 78h2M173 78h2M177 78h2M217 78h16M235 78h2M12 79h2M16 79h2M34 79h2M38 79h2M74 79h2M86 79h11M107 79h2M173 79h2M177 79h2M217 79h16M235 79h2M12 80h2M16 80h2M34 80h2M38 80h2M74 80h2M86 80h11M107 80h2M173 80h2M177 80h16M235 80h2M12 81h2M16 81h2M34 81h2M38 81h2M74 81h2M86 81h11M107 81h2M173 81h2M177 81h16M235 81h2M12 82h2M16 82h2M34 82h2M38 82h2M74 82h2M86 82h11M107 82h2M173 82h2M235 82h2M12 83h2M16 83h2M34 83h2M38 83h2M74 83h2M86 83h11M107 83h2M173 83h2M235 83h2M12 84h2M16 84h2M34 84h2M38 84h2M74 84h2M86 84h11M107 84h2M173 84h2M181 84h8M221 84h8M235 84h2M12 85h2M16 85h2M34 85h2M38 85h2M74 85h2M86 85h11M107 85h2M173 85h2M181 85h8M221 85h8M235 85h2M74 86h2M86 86h11M107 86h2M74 87h2M86 87h11M107 87h2M74 88h2M86 88h11M107 88h2M74 89h2M86 89h11M107 89h2M74 90h2M86 90h11M107 90h2M203 90h4M74 91h2M86 91h11M107 91h2M203 91h4M74 92h2M86 92h11M107 92h2M183 92h2M189 92h2M193 92h2M215 92h2M221 92h2M74 93h2M86 93h11M107 93h2M183 93h2M189 93h2M193 93h2M215 93h2M221 93h2M74 94h2M86 94h11M107 94h2M191 94h2M217 94h2M74 95h2M86 95h11M107 95h2M191 95h2M217 95h2M74 96h2M86 96h11M107 96h2M189 96h2M219 96h2M74 97h2M86 97h11M107 97h2M189 97h2M219 97h2M74 98h2M86 98h11M107 98h2M189 98h2M195 98h2M213 98h2M219 98h2M74 99h2M86 99h11M107 99h2M189 99h2M195 99h2M213 99h2M219 99h2M74 100h2M86 100h11M107 100h2M177 100h2M189 100h2M195 100h2M213 100h2M219 100h2M74 101h2M86 101h11M107 101h2M177 101h2M189 101h2M195 101h2M213 101h2M219 101h2M42 102h34M86 102h11M107 102h2M191 102h4M215 102h4M42 103h34M86 103h11M107 103h2M191 103h4M215 103h4M42 104h4M76 104h2M86 104h11M107 104h2M195 104h2M213 104h2M42 105h4M76 105h2M86 105h11M107 105h2M195 105h2M213 105h2M42 106h2M46 106h2M78 106h2M84 106h13M107 106h2M195 106h2M201 106h2M207 106h2M213 106h2M42 107h2M46 107h2M78 107h2M84 107h13M107 107h2M195 107h2M201 107h2M207 107h2M213 107h2M42 108h2M48 108h2M80 108h2M84 108h13M107 108h2M181 108h2M193 108h2M197 108h2M201 108h2M207 108h2M211 108h4M225 108h2M42 109h2M48 109h2M80 109h2M84 109h13M107 109h2M181 109h2M193 109h2M197 109h2M201 109h2M207 109h2M211 109h4M225 109h2M42 110h2M50 110h2M82 110h15M107 110h4M139 110h2M197 110h6M207 110h6M42 111h2M50 111h2M82 111h15M107 111h4M139 111h2M197 111h6M207 111h6M42 112h2M52 112h2M78 112h19M107 112h4M139 112h2M42 113h2M52 113h2M78 113h19M107 113h4M139 113h2M42 114h2M54 114h43M107 114h4M115 114h20M139 114h2M42 115h2M54 115h43M107 115h4M115 115h20M139 115h2M42 116h2M54 116h43M107 116h4M115 116h2M119 116h2M133 116h2M139 116h2M181 116h2M199 116h2M213 116h2M231 116h2M42 117h2M54 117h43M107 117h4M115 117h2M119 117h2M133 117h2M139 117h2M181 117h2M199 117h2M213 117h2M231 117h2M42 118h2M54 118h43M107 118h2M42 119h2M54 119h43M107 119h2" />
<path stroke="#203c56" d="M4 0h2M10 0h2M16 0h6M30 0h6M40 0h2M44 0h2M70 0h2M76 0h2M80 0h2M84 0h2M99 0h4M105 0h2M109 0h2M113 0h2M117 0h2M121 0h2M125 0h2M129 0h2M133 0h2M137 0h2M141 0h2M145 0h2M149 0h2M153 0h2M157 0h2M161 0h2M165 0h2M169 0h2M173 0h2M177 0h2M181 0h2M185 0h2M189 0h2M193 0h2M197 0h2M201 0h2M205 0h2M209 0h2M213 0h2M217 0h2M221 0h2M225 0h2M229 0h2M233 0h2M4 1h2M10 1h2M16 1h6M30 1h6M40 1h2M44 1h2M70 1h2M76 1h2M80 1h2M84 1h2M99 1h4M105 1h2M109 1h2M113 1h2M117 1h2M121 1h2M125 1h2M129 1h2M133 1h2M137 1h2M141 1h2M145 1h2M149 1h2M153 1h2M157 1h2M161 1h2M165 1h2M169 1h2M173 1h2M177 1h2M181 1h2M185 1h2M189 1h2M193 1h2M197 1h2M201 1h2M205 1h2M209 1h2M213 1h2M217 1h2M221 1h2M225 1h2M229 1h2M233 1h2M0 2h6M10 2h2M40 2h2M44 2h28M76 2h10M97 2h2M101 2h4M107 2h130M0 3h6M10 3h2M40 3h2M44 3h28M76 3h10M97 3h2M101 3h4M107 3h130M10 4h2M40 4h2M44 4h2M70 4h2M76 4h2M80 4h2M84 4h2M97 4h10M10 5h2M40 5h2M44 5h2M70 5h2M76 5h2M80 5h2M84 5h2M97 5h10M0 6h10M12 6h28M44 6h2M48 6h20M70 6h2M76 6h10M97 6h2M101 6h2M105 6h2M0 7h10M12 7h28M44 7h2M48 7h20M70 7h2M76 7h10M97 7h2M101 7h2M105 7h2M8 8h2M12 8h28M44 8h2M48 8h20M70 8h2M76 8h2M80 8h2M84 8h2M97 8h10M8 9h2M12 9h28M44 9h2M48 9h20M70 9h2M76 9h2M80 9h2M84 9h2M97 9h10M0 10h6M8 10h2M12 10h2M38 10h2M44 10h2M48 10h20M70 10h2M76 10h10M97 10h2M101 10h2M105 10h2M0 11h6M8 11h2M12 11h2M38 11h2M44 11h2M48 11h20M70 11h2M76 11h10M97 11h2M101 11h2M105 11h2M0 12h6M8 12h2M12 12h2M16 12h20M38 12h2M44 12h2M48 12h2M52 12h16M70 12h2M76 12h2M80 12h2M84 12h2M97 12h10M0 13h6M8 13h2M12 13h2M16 13h20M38 13h2M44 13h2M48 13h2M52 13h16M70 13h2M76 13h2M80 13h2M84 13h2M97 13h10M0 14h6M8 14h2M12 14h2M38 14h2M44 14h2M48 14h2M52 14h16M70 14h2M76 14h10M97 14h2M101 14h2M105 14h2M113 14h4M121 14h40M169 14h40M213 14h20M0 15h6M8 15h2M12 15h2M38 15h2M44 15h2M48 15h2M52 15h16M70 15h2M76 15h10M97 15h2M101 15h2M105 15h2M113 15h4M121 15h40M169 15h40M213 15h20M0 16h6M8 16h2M12 16h2M16 16h20M38 16h2M44 16h2M48 16h2M52 16h16M70 16h2M76 16h2M80 16h2M84 16h2M97 16h10M111 16h6M213 16h22M0 17h6M8 17h2M12 17h2M16 17h20M38 17h2M44 17h2M48 17h2M52 17h16M70 17h2M76 17h2M80 17h2M84 17h2M97 17h10M111 17h6M213 17h22M0 18h6M8 18h2M12 18h2M38 18h2M44 18h2M48 18h20M70 18h2M76 18h10M97 18h2M101 18h2M105 18h2M113 18h8M129 18h24M161 18h8M177 18h24M209 18h24M0 19h6M8 19h2M12 19h2M38 19h2M44 19h2M48 19h20M70 19h2M76 19h10M97 19h2M101 19h2M105 19h2M113 19h8M129 19h24M161 19h8M177 19h24M209 19h24M0 20h6M8 20h2M12 20h2M16 20h20M38 20h2M44 20h2M48 20h20M70 20h2M76 20h2M80 20h2M84 20h2M97 20h10M111 20h10M161 20h8M209 20h26M0 21h6M8 21h2M12 21h2M16 21h20M38 21h2M44 21h2M48 21h20M70 21h2M76 21h2M80 21h2M84 21h2M97 21h10M111 21h10M161 21h8M209 21h26M0 22h6M8 22h2M12 22h2M38 22h2M44 22h2M70 22h2M76 22h10M97 22h2M101 22h2M105 22h2M113 22h8M161 22h8M205 22h32M0 23h6M8 23h2M12 23h2M38 23h2M44 23h2M70 23h2M76 23h10M97 23h2M101 23h2M105 23h2M113 23h8M161 23h8M205 23h32M8 24h2M12 24h28M44 24h28M76 24h2M80 24h2M84 24h2M97 24h10M111 24h10M161 24h8M205 24h2M235 24h2M8 25h2M12 25h28M44 25h28M76 25h2M80 25h2M84 25h2M97 25h10M111 25h10M161 25h8M205 25h2M235 25h2M0 26h10M12 26h28M44 26h28M76 26h10M97 26h2M101 26h2M105 26h2M113 26h8M161 26h8M205 26h2M235 26h2M0 27h10M12 27h28M44 27h28M76 27h10M97 27h2M101 27h2M105 27h2M113 27h8M161 27h8M205 27h2M235 27h2M6 28h4M12 28h6M34 28h6M44 28h6M66 28h6M76 28h2M80 28h2M84 28h2M97 28h10M111 28h10M161 28h8M205 28h2M235 28h2M6 29h4M12 29h6M34 29h6M44 29h6M66 29h6M76 29h2M80 29h2M84 29h2M97 29h10M111 29h10M161 29h8M205 29h2M235 29h2M10 30h2M42 30h2M76 30h10M97 30h2M101 30h2M105 30h2M113 30h8M161 30h8M205 30h2M235 30h2M10 31h2M42 31h2M76 31h10M97 31h2M101 31h2M105 31h2M113 31h8M161 31h8M205 31h2M235 31h2M10 32h2M42 32h2M76 32h2M80 32h2M84 32h2M97 32h10M111 32h10M161 32h8M205 32h2M235 32h2M10 33h2M42 33h2M76 33h2M80 33h2M84 33h2M97 33h10M111 33h10M161 33h8M205 33h2M235 33h2M10 34h2M42 34h2M76 34h10M97 34h2M101 34h2M105 34h2M113 34h8M161 34h8M205 34h2M235 34h2M10 35h2M42 35h2M76 35h10M97 35h2M101 35h2M105 35h2M113 35h8M161 35h8M205 35h2M235 35h2M0 36h30M32 36h30M64 36h10M76 36h2M80 36h2M84 36h2M97 36h10M111 36h10M161 36h8M205 36h2M235 36h2M0 37h30M32 37h30M64 37h10M76 37h2M80 37h2M84 37h2M97 37h10M111 37h10M161 37h8M205 37h2M235 37h2M30 38h2M62 38h2M76 38h10M97 38h2M101 38h2M105 38h2M113 38h8M161 38h8M207 38h28M30 39h2M62 39h2M76 39h10M97 39h2M101 39h2M105 39h2M113 39h8M161 39h8M207 39h28M62 40h2M76 40h2M80 40h2M84 40h2M97 40h10M111 40h10M161 40h8M207 40h2M233 40h2M62 41h2M76 41h2M80 41h2M84 41h2M97 41h10M111 41h10M161 41h8M207 41h2M233 41h2M62 42h2M76 42h10M97 42h2M101 42h2M105 42h2M113 42h8M161 42h8M207 42h2M211 42h20M233 42h2M62 43h2M76 43h10M97 43h2M101 43h2M105 43h2M113 43h8M161 43h8M207 43h2M211 43h20M233 43h2M0 44h2M4 44h14M20 44h4M32 44h2M38 44h12M52 44h10M76 44h2M80 44h2M84 44h2M97 44h10M111 44h10M161 44h8M207 44h2M211 44h2M215 44h2M225 44h2M229 44h2M233 44h2M0 45h2M4 45h14M20 45h4M32 45h2M38 45h12M52 45h10M76 45h2M80 45h2M84 45h2M97 45h10M111 45h10M161 45h8M207 45h2M211 45h2M215 45h2M225 45h2M229 45h2M233 45h2M2 46h2M18 46h2M22 46h2M32 46h2M50 46h2M76 46h10M97 46h2M101 46h2M105 46h2M113 46h8M161 46h8M207 46h2M211 46h20M233 46h2M2 47h2M18 47h2M22 47h2M32 47h2M50 47h2M76 47h10M97 47h2M101 47h2M105 47h2M113 47h8M161 47h8M207 47h2M211 47h20M233 47h2M2 48h2M18 48h4M50 48h2M76 48h2M80 48h2M84 48h2M97 48h10M111 48h10M161 48h8M207 48h2M211 48h20M233 48h2M2 49h2M18 49h4M50 49h2M76 49h2M80 49h2M84 49h2M97 49h10M111 49h10M161 49h8M207 49h2M211 49h20M233 49h2M2 50h2M18 50h2M22 50h2M32 50h2M36 50h2M50 50h2M76 50h10M97 50h2M101 50h2M105 50h2M113 50h8M161 50h8M207 50h2M233 50h2M2 51h2M18 51h2M22 51h2M32 51h2M36 51h2M50 51h2M76 51h10M97 51h2M101 51h2M105 51h2M113 51h8M161 51h8M207 51h2M233 51h2M0 52h2M4 52h16M22 52h2M32 52h2M36 52h8M76 52h2M80 52h2M84 52h2M97 52h10M111 52h12M127 52h28M159 52h12M175 52h4M199 52h4M207 52h28M0 53h2M4 53h16M22 53h2M32 53h2M36 53h8M76 53h2M80 53h2M84 53h2M97 53h10M111 53h12M127 53h28M159 53h12M175 53h4M199 53h4M207 53h28M76 54h10M97 54h2M101 54h2M105 54h2M113 54h68M197 54h8M207 54h2M233 54h2M76 55h10M97 55h2M101 55h2M105 55h2M113 55h68M197 55h8M207 55h2M233 55h2M20 56h2M76 56h2M80 56h2M84 56h2M97 56h10M111 56h64M203 56h2M207 56h2M211 56h20M233 56h2M20 57h2M76 57h2M80 57h2M84 57h2M97 57h10M111 57h64M203 57h2M207 57h2M211 57h20M233 57h2M14 58h4M20 58h14M76 58h10M97 58h2M101 58h2M105 58h2M113 58h62M203 58h2M207 58h2M211 58h2M215 58h2M225 58h2M229 58h2M233 58h2M14 59h4M20 59h14M76 59h10M97 59h2M101 59h2M105 59h2M113 59h62M203 59h2M207 59h2M211 59h2M215 59h2M225 59h2M229 59h2M233 59h2M0 60h10M12 60h2M22 60h12M38 60h4M76 60h2M80 60h2M84 60h2M97 60h10M111 60h64M203 60h2M207 60h2M211 60h20M233 60h2M0 61h10M12 61h2M22 61h12M38 61h4M76 61h2M80 61h2M84 61h2M97 61h10M111 61h64M203 61h2M207 61h2M211 61h20M233 61h2M10 62h4M38 62h2M76 62h10M97 62h2M101 62h2M105 62h2M117 62h16M141 62h34M203 62h2M207 62h2M211 62h20M233 62h2M10 63h4M38 63h2M76 63h10M97 63h2M101 63h2M105 63h2M117 63h16M141 63h34M203 63h2M207 63h2M211 63h20M233 63h2M10 64h4M22 64h2M26 64h2M30 64h2M38 64h2M76 64h2M80 64h2M84 64h2M97 64h10M173 64h2M203 64h2M207 64h2M233 64h2M10 65h4M22 65h2M26 65h2M30 65h2M38 65h2M76 65h2M80 65h2M84 65h2M97 65h10M173 65h2M203 65h2M207 65h2M233 65h2M10 66h4M24 66h2M28 66h2M38 66h2M76 66h10M97 66h2M101 66h2M105 66h2M111 66h4M135 66h4M173 66h2M203 66h2M207 66h6M217 66h18M10 67h4M24 67h2M28 67h2M38 67h2M76 67h10M97 67h2M101 67h2M105 67h2M111 67h4M135 67h4M173 67h2M203 67h2M207 67h6M217 67h18M0 68h14M24 68h6M38 68h4M76 68h2M80 68h2M84 68h2M97 68h10M111 68h4M135 68h4M173 68h2M193 68h4M203 68h2M207 68h2M213 68h4M233 68h2M0 69h14M24 69h6M38 69h4M76 69h2M80 69h2M84 69h2M97 69h10M111 69h4M135 69h4M173 69h2M193 69h4M203 69h2M207 69h2M213 69h4M233 69h2M0 70h6M12 70h2M38 70h2M76 70h10M97 70h2M101 70h2M105 70h2M159 70h4M175 70h16M195 70h4M211 70h4M219 70h12M233 70h2M0 71h6M12 71h2M38 71h2M76 71h10M97 71h2M101 71h2M105 71h2M159 71h4M175 71h16M195 71h4M211 71h4M219 71h12M233 71h2M12 72h2M38 72h2M76 72h2M80 72h2M84 72h2M97 72h10M165 72h2M175 72h2M197 72h4M209 72h4M225 72h2M229 72h2M233 72h2M12 73h2M38 73h2M76 73h2M80 73h2M84 73h2M97 73h10M165 73h2M175 73h2M197 73h4M209 73h4M225 73h2M229 73h2M233 73h2M14 74h24M76 74h10M97 74h2M101 74h2M105 74h2M167 74h2M175 74h2M179 74h12M219 74h12M233 74h2M14 75h24M76 75h10M97 75h2M101 75h2M105 75h2M167 75h2M175 75h2M179 75h12M219 75h12M233 75h2M14 76h2M36 76h2M76 76h2M80 76h2M84 76h2M97 76h10M169 76h4M175 76h2M179 76h2M183 76h2M219 76h12M233 76h2M14 77h2M36 77h2M76 77h2M80 77h2M84 77h2M97 77h10M169 77h4M175 77h2M179 77h2M183 77h2M219 77h12M233 77h2M14 78h2M18 78h16M36 78h2M76 78h10M97 78h2M101 78h2M105 78h2M169 78h2M175 78h2M179 78h16M215 78h2M233 78h2M14 79h2M18 79h16M36 79h2M76 79h10M97 79h2M101 79h2M105 79h2M169 79h2M175 79h2M179 79h16M215 79h2M233 79h2M14 80h2M18 80h16M36 80h2M76 80h2M80 80h2M84 80h2M97 80h10M169 80h2M175 80h2M193 80h2M215 80h20M14 81h2M18 81h16M36 81h2M76 81h2M80 81h2M84 81h2M97 81h10M169 81h2M175 81h2M193 81h2M215 81h20M14 82h2M20 82h2M24 82h2M28 82h2M32 82h2M36 82h2M76 82h10M97 82h2M101 82h2M105 82h2M171 82h2M175 82h18M197 82h2M209 82h2M217 82h18M14 83h2M20 83h2M24 83h2M28 83h2M32 83h2M36 83h2M76 83h10M97 83h2M101 83h2M105 83h2M171 83h2M175 83h18M197 83h2M209 83h2M217 83h18M14 84h2M36 84h2M76 84h2M80 84h2M84 84h2M97 84h10M171 84h2M175 84h6M189 84h2M199 84h2M209 84h2M219 84h2M229 84h6M14 85h2M36 85h2M76 85h2M80 85h2M84 85h2M97 85h10M171 85h2M175 85h6M189 85h2M199 85h2M209 85h2M219 85h2M229 85h6M76 86h10M97 86h2M101 86h2M105 86h2M171 86h2M183 86h2M189 86h2M199 86h2M209 86h2M219 86h2M76 87h10M97 87h2M101 87h2M105 87h2M171 87h2M183 87h2M189 87h2M199 87h2M209 87h2M219 87h2M76 88h2M80 88h2M84 88h2M97 88h10M171 88h2M183 88h2M191 88h2M217 88h2M76 89h2M80 89h2M84 89h2M97 89h10M171 89h2M183 89h2M191 89h2M217 89h2M76 90h10M97 90h2M101 90h2M105 90h2M171 90h2M183 90h2M193 90h2M215 90h2M76 91h10M97 91h2M101 91h2M105 91h2M171 91h2M183 91h2M193 91h2M215 91h2M76 92h2M80 92h2M84 92h2M97 92h10M171 92h12M185 92h4M191 92h2M195 92h4M211 92h4M217 92h4M223 92h14M76 93h2M80 93h2M84 93h2M97 93h10M171 93h12M185 93h4M191 93h2M195 93h4M211 93h4M217 93h4M223 93h14M76 94h10M97 94h2M101 94h2M105 94h2M171 94h2M189 94h2M197 94h4M209 94h4M221 94h2M76 95h10M97 95h2M101 95h2M105 95h2M171 95h2M189 95h2M197 95h4M209 95h4M221 95h2M76 96h2M80 96h2M84 96h2M97 96h10M171 96h2M191 96h4M197 96h2M211 96h2M215 96h4M221 96h2M76 97h2M80 97h2M84 97h2M97 97h10M171 97h2M191 97h4M197 97h2M211 97h2M215 97h4M221 97h2M76 98h10M97 98h2M101 98h2M105 98h2M171 98h2M191 98h4M199 98h2M209 98h2M215 98h4M221 98h2M76 99h10M97 99h2M101 99h2M105 99h2M171 99h2M191 99h4M199 99h2M209 99h2M215 99h4M221 99h2M76 100h2M80 100h2M84 100h2M97 100h10M171 100h6M179 100h10M191 100h4M201 100h2M207 100h2M215 100h4M221 100h16M76 101h2M80 101h2M84 101h2M97 101h10M171 101h6M179 101h10M191 101h4M201 101h2M207 101h2M215 101h4M221 101h16M76 102h10M97 102h2M101 102h2M105 102h2M171 102h2M195 102h2M203 102h4M213 102h2M225 102h2M76 103h10M97 103h2M101 103h2M105 103h2M171 103h2M195 103h2M203 103h4M213 103h2M225 103h2M46 104h30M78 104h4M84 104h2M97 104h10M171 104h2M193 104h2M197 104h4M211 104h2M225 104h2M46 105h30M78 105h4M84 105h2M97 105h10M171 105h2M193 105h2M197 105h4M211 105h2M225 105h2M44 106h2M48 106h2M52 106h2M56 106h2M60 106h2M64 106h2M68 106h2M72 106h2M76 106h2M80 106h4M97 106h2M101 106h2M105 106h2M171 106h2M193 106h2M197 106h4M203 106h4M209 106h4M225 106h2M44 107h2M48 107h2M52 107h2M56 107h2M60 107h2M64 107h2M68 107h2M72 107h2M76 107h2M80 107h4M97 107h2M101 107h2M105 107h2M171 107h2M193 107h2M197 107h4M203 107h4M209 107h4M225 107h2M44 108h4M50 108h30M82 108h2M97 108h10M171 108h10M183 108h10M195 108h2M199 108h2M203 108h4M209 108h2M215 108h10M227 108h10M44 109h4M50 109h30M82 109h2M97 109h10M171 109h10M183 109h10M195 109h2M199 109h2M203 109h4M209 109h2M215 109h10M227 109h10M44 110h6M52 110h2M56 110h2M60 110h2M64 110h2M68 110h2M72 110h2M76 110h2M80 110h2M97 110h2M101 110h2M105 110h2M111 110h28M171 110h2M181 110h2M213 110h2M44 111h6M52 111h2M56 111h2M60 111h2M64 111h2M68 111h2M72 111h2M76 111h2M80 111h2M97 111h2M101 111h2M105 111h2M111 111h28M171 111h2M181 111h2M213 111h2M44 112h2M48 112h4M54 112h24M97 112h10M111 112h28M171 112h2M181 112h2M213 112h2M44 113h2M48 113h4M54 113h24M97 113h10M111 113h28M171 113h2M181 113h2M213 113h2M44 114h10M97 114h2M101 114h2M105 114h2M111 114h4M135 114h4M171 114h2M181 114h2M213 114h2M44 115h10M97 115h2M101 115h2M105 115h2M111 115h4M135 115h4M171 115h2M181 115h2M213 115h2M44 116h2M48 116h2M52 116h2M97 116h10M111 116h4M117 116h2M121 116h4M135 116h4M171 116h10M183 116h16M201 116h12M215 116h16M233 116h4M44 117h2M48 117h2M52 117h2M97 117h10M111 117h4M117 117h2M121 117h4M135 117h4M171 117h10M183 117h16M201 117h12M215 117h16M233 117h4M44 118h10M97 118h2M101 118h2M105 118h2M109 118h2M171 118h2M199 118h2M231 118h2M44 119h10M97 119h2M101 119h2M105 119h2M109 119h2M171 119h2M199 119h2M231 119h2" />
<path stroke="#544e68" d="M6 0h4M78 0h2M82 0h2M107 0h2M111 0h2M115 0h2M119 0h2M123 0h2M127 0h2M131 0h2M135 0h2M139 0h2M143 0h2M147 0h2M151 0h2M155 0h2M159 0h2M163 0h2M167 0h2M171 0h2M175 0h2M179 0h2M183 0h2M187 0h2M191 0h2M195 0h2M199 0h2M203 0h2M207 0h2M211 0h2M215 0h2M219 0h2M223 0h2M227 0h2M231 0h2M235 0h2M6 1h4M78 1h2M82 1h2M107 1h2M111 1h2M115 1h2M119 1h2M123 1h2M127 1h2M131 1h2M135 1h2M139 1h2M143 1h2M147 1h2M151 1h2M155 1h2M159 1h2M163 1h2M167 1h2M171 1h2M175 1h2M179 1h2M183 1h2M187 1h2M191 1h2M195 1h2M199 1h2M203 1h2M207 1h2M211 1h2M215 1h2M219 1h2M223 1h2M227 1h2M231 1h2M235 1h2M6 2h4M99 2h2M6 3h4M99 3h2M0 4h10M78 4h2M82 4h2M0 5h10M78 5h2M82 5h2M99 6h2M103 6h2M99 7h2M103 7h2M78 8h2M82 8h2M78 9h2M82 9h2M20 10h12M99 10h2M103 10h2M20 11h12M99 11h2M103 11h2M78 12h2M82 12h2M78 13h2M82 13h2M99 14h2M103 14h2M119 14h2M163 14h2M167 14h2M211 14h2M99 15h2M103 15h2M119 15h2M163 15h2M167 15h2M211 15h2M78 16h2M82 16h2M117 16h4M129 16h24M161 16h8M177 16h24M209 16h4M78 17h2M82 17h2M117 17h4M129 17h24M161 17h8M177 17h24M209 17h4M99 18h2M103 18h2M99 19h2M103 19h2M78 20h2M82 20h2M129 20h24M177 20h24M78 21h2M82 21h2M129 21h24M177 21h24M99 22h2M103 22h2M129 22h24M177 22h24M99 23h2M103 23h2M129 23h24M177 23h24M78 24h2M82 24h2M129 24h2M151 24h2M177 24h2M199 24h2M207 24h28M78 25h2M82 25h2M129 25h2M151 25h2M177 25h2M199 25h2M207 25h28M99 26h2M103 26h2M129 26h2M151 26h2M177 26h2M199 26h2M207 26h28M99 27h2M103 27h2M129 27h2M151 27h2M177 27h2M199 27h2M207 27h28M78 28h2M82 28h2M129 28h2M151 28h2M177 28h2M199 28h2M207 28h28M78 29h2M82 29h2M129 29h2M151 29h2M177 29h2M199 29h2M207 29h28M0 30h10M12 30h30M44 30h30M99 30h2M103 30h2M129 30h2M151 30h2M177 30h2M199 30h2M207 30h28M0 31h10M12 31h30M44 31h30M99 31h2M103 31h2M129 31h2M151 31h2M177 31h2M199 31h2M207 31h28M0 32h10M12 32h30M44 32h30M78 32h2M82 32h2M129 32h24M177 32h24M207 32h28M0 33h10M12 33h30M44 33h30M78 33h2M82 33h2M129 33h24M177 33h24M207 33h28M0 34h10M12 34h30M44 34h30M99 34h2M103 34h2M129 34h2M151 34h2M177 34h2M199 34h2M207 34h28M0 35h10M12 35h30M44 35h30M99 35h2M103 35h2M129 35h2M151 35h2M177 35h2M199 35h2M207 35h28M78 36h2M82 36h2M129 36h2M151 36h2M177 36h2M199 36h2M207 36h28M78 37h2M82 37h2M129 37h2M151 37h2M177 37h2M199 37h2M207 37h28M0 38h26M32 38h30M64 38h10M99 38h2M103 38h2M129 38h2M151 38h2M177 38h2M199 38h2M0 39h26M32 39h30M64 39h10M99 39h2M103 39h2M129 39h2M151 39h2M177 39h2M199 39h2M0 40h24M32 40h30M64 40h10M78 40h2M82 40h2M129 40h2M151 40h2M177 40h2M199 40h2M0 41h24M32 41h30M64 41h10M78 41h2M82 41h2M129 41h2M151 41h2M177 41h2M199 41h2M0 42h24M32 42h30M64 42h2M72 42h2M99 42h2M103 42h2M129 42h2M151 42h2M177 42h2M199 42h2M0 43h24M32 43h30M64 43h2M72 43h2M99 43h2M103 43h2M129 43h2M151 43h2M177 43h2M199 43h2M78 44h2M82 44h2M129 44h2M151 44h2M177 44h2M199 44h2M78 45h2M82 45h2M129 45h2M151 45h2M177 45h2M199 45h2M0 46h2M4 46h14M20 46h2M38 46h12M52 46h12M99 46h2M103 46h2M129 46h2M151 46h2M177 46h2M199 46h2M0 47h2M4 47h14M20 47h2M38 47h12M52 47h12M99 47h2M103 47h2M129 47h2M151 47h2M177 47h2M199 47h2M0 48h2M4 48h14M22 48h2M38 48h12M52 48h12M78 48h2M82 48h2M0 49h2M4 49h14M22 49h2M38 49h12M52 49h12M78 49h2M82 49h2M0 50h2M4 50h14M20 50h2M34 50h2M38 50h12M52 50h12M99 50h2M103 50h2M129 50h24M177 50h2M199 50h2M0 51h2M4 51h14M20 51h2M34 51h2M38 51h12M52 51h12M99 51h2M103 51h2M129 51h24M177 51h2M199 51h2M20 52h2M34 52h2M78 52h2M82 52h2M20 53h2M34 53h2M78 53h2M82 53h2M0 54h18M20 54h2M34 54h2M38 54h4M99 54h2M103 54h2M0 55h18M20 55h2M34 55h2M38 55h4M99 55h2M103 55h2M0 56h18M22 56h12M38 56h4M78 56h2M82 56h2M175 56h10M193 56h10M0 57h18M22 57h12M38 57h4M78 57h2M82 57h2M175 57h10M193 57h10M0 58h14M38 58h4M99 58h2M103 58h2M175 58h12M191 58h12M0 59h14M38 59h4M99 59h2M103 59h2M175 59h12M191 59h12M14 60h6M36 60h2M78 60h2M82 60h2M175 60h10M193 60h10M14 61h6M36 61h2M78 61h2M82 61h2M175 61h10M193 61h10M0 62h10M14 62h6M36 62h2M40 62h2M99 62h2M103 62h2M109 62h8M133 62h8M175 62h10M193 62h10M0 63h10M14 63h6M36 63h2M40 63h2M99 63h2M103 63h2M109 63h8M133 63h8M175 63h10M193 63h10M0 64h10M14 64h6M36 64h2M40 64h2M78 64h2M82 64h2M109 64h2M115 64h2M133 64h2M139 64h2M175 64h28M0 65h10M14 65h6M36 65h2M40 65h2M78 65h2M82 65h2M109 65h2M115 65h2M133 65h2M139 65h2M175 65h28M0 66h10M14 66h6M22 66h2M36 66h2M40 66h2M99 66h2M103 66h2M175 66h18M197 66h6M0 67h10M14 67h6M22 67h2M36 67h2M40 67h2M99 67h2M103 67h2M175 67h18M197 67h6M14 68h8M34 68h4M78 68h2M82 68h2M117 68h16M175 68h16M199 68h4M14 69h8M34 69h4M78 69h2M82 69h2M117 69h16M175 69h16M199 69h4M6 70h6M14 70h24M40 70h2M99 70h2M103 70h2M109 70h2M139 70h20M163 70h10M6 71h6M14 71h24M40 71h2M99 71h2M103 71h2M109 71h2M139 71h20M163 71h10M0 72h12M14 72h24M40 72h2M78 72h2M82 72h2M109 72h2M139 72h26M167 72h6M0 73h12M14 73h24M40 73h2M78 73h2M82 73h2M109 73h2M139 73h26M167 73h6M0 74h12M40 74h2M99 74h2M103 74h2M109 74h2M139 74h28M169 74h4M0 75h12M40 75h2M99 75h2M103 75h2M109 75h2M139 75h28M169 75h4M0 76h8M78 76h2M82 76h2M109 76h2M139 76h2M157 76h12M0 77h8M78 77h2M82 77h2M109 77h2M139 77h2M157 77h12M0 78h4M10 78h2M99 78h2M103 78h2M109 78h2M139 78h4M145 78h2M149 78h2M153 78h2M161 78h8M171 78h2M0 79h4M10 79h2M99 79h2M103 79h2M109 79h2M139 79h4M145 79h2M149 79h2M153 79h2M161 79h8M171 79h2M0 80h2M78 80h2M82 80h2M109 80h2M139 80h2M163 80h6M171 80h2M0 81h2M78 81h2M82 81h2M109 81h2M139 81h2M163 81h6M171 81h2M0 82h2M6 82h2M10 82h2M18 82h2M22 82h2M26 82h2M30 82h2M99 82h2M103 82h2M109 82h2M139 82h4M145 82h2M149 82h2M153 82h2M157 82h2M163 82h8M0 83h2M6 83h2M10 83h2M18 83h2M22 83h2M26 83h2M30 83h2M99 83h2M103 83h2M109 83h2M139 83h4M145 83h2M149 83h2M153 83h2M157 83h2M163 83h8M78 84h2M82 84h2M109 84h2M139 84h2M165 84h6M197 84h2M211 84h2M78 85h2M82 85h2M109 85h2M139 85h2M165 85h6M197 85h2M211 85h2M2 86h2M6 86h2M10 86h2M14 86h2M18 86h2M22 86h2M26 86h2M30 86h2M34 86h2M38 86h2M99 86h2M103 86h2M109 86h2M139 86h4M145 86h2M149 86h2M153 86h2M157 86h2M161 86h2M165 86h6M173 86h10M185 86h4M221 86h16M2 87h2M6 87h2M10 87h2M14 87h2M18 87h2M22 87h2M26 87h2M30 87h2M34 87h2M38 87h2M99 87h2M103 87h2M109 87h2M139 87h4M145 87h2M149 87h2M153 87h2M157 87h2M161 87h2M165 87h6M173 87h10M185 87h4M221 87h16M78 88h2M82 88h2M109 88h2M139 88h2M165 88h6M173 88h10M185 88h6M219 88h18M78 89h2M82 89h2M109 89h2M139 89h2M165 89h6M173 89h10M185 89h6M219 89h18M2 90h2M6 90h2M10 90h2M14 90h2M18 90h2M22 90h2M26 90h2M30 90h2M34 90h2M38 90h2M99 90h2M103 90h2M109 90h2M139 90h4M145 90h2M149 90h2M153 90h2M157 90h2M161 90h2M165 90h6M173 90h10M185 90h8M217 90h20M2 91h2M6 91h2M10 91h2M14 91h2M18 91h2M22 91h2M26 91h2M30 91h2M34 91h2M38 91h2M99 91h2M103 91h2M109 91h2M139 91h4M145 91h2M149 91h2M153 91h2M157 91h2M161 91h2M165 91h6M173 91h10M185 91h8M217 91h20M78 92h2M82 92h2M109 92h2M139 92h2M165 92h6M78 93h2M82 93h2M109 93h2M139 93h2M165 93h6M2 94h2M6 94h2M10 94h2M14 94h2M18 94h2M22 94h2M26 94h2M30 94h2M34 94h2M38 94h2M99 94h2M103 94h2M109 94h2M139 94h4M145 94h2M149 94h2M153 94h2M157 94h2M161 94h2M165 94h6M173 94h16M219 94h2M223 94h14M2 95h2M6 95h2M10 95h2M14 95h2M18 95h2M22 95h2M26 95h2M30 95h2M34 95h2M38 95h2M99 95h2M103 95h2M109 95h2M139 95h4M145 95h2M149 95h2M153 95h2M157 95h2M161 95h2M165 95h6M173 95h16M219 95h2M223 95h14M78 96h2M82 96h2M109 96h2M139 96h2M165 96h6M173 96h16M223 96h14M78 97h2M82 97h2M109 97h2M139 97h2M165 97h6M173 97h16M223 97h14M2 98h2M6 98h2M10 98h2M14 98h2M18 98h2M22 98h2M26 98h2M30 98h2M34 98h2M38 98h2M99 98h2M103 98h2M109 98h2M139 98h4M145 98h2M149 98h2M153 98h2M157 98h2M161 98h2M165 98h6M173 98h16M223 98h14M2 99h2M6 99h2M10 99h2M14 99h2M18 99h2M22 99h2M26 99h2M30 99h2M34 99h2M38 99h2M99 99h2M103 99h2M109 99h2M139 99h4M145 99h2M149 99h2M153 99h2M157 99h2M161 99h2M165 99h6M173 99h16M223 99h14M78 100h2M82 100h2M109 100h2M139 100h2M165 100h6M78 101h2M82 101h2M109 101h2M139 101h2M165 101h6M2 102h2M6 102h2M10 102h2M14 102h2M18 102h2M22 102h2M26 102h2M30 102h2M34 102h2M38 102h2M99 102h2M103 102h2M109 102h2M139 102h4M145 102h2M149 102h2M153 102h2M157 102h2M161 102h2M165 102h6M173 102h18M219 102h6M227 102h10M2 103h2M6 103h2M10 103h2M14 103h2M18 103h2M22 103h2M26 103h2M30 103h2M34 103h2M38 103h2M99 103h2M103 103h2M109 103h2M139 103h4M145 103h2M149 103h2M153 103h2M157 103h2M161 103h2M165 103h6M173 103h18M219 103h6M227 103h10M82 104h2M109 104h2M139 104h2M165 104h6M173 104h20M215 104h10M227 104h10M82 105h2M109 105h2M139 105h2M165 105h6M173 105h20M215 105h10M227 105h10M2 106h2M6 106h2M10 106h2M14 106h2M18 106h2M22 106h2M26 106h2M30 106h2M34 106h2M38 106h2M50 106h2M54 106h2M58 106h2M62 106h2M66 106h2M70 106h2M74 106h2M99 106h2M103 106h2M109 106h2M139 106h4M145 106h2M149 106h2M153 106h2M157 106h2M161 106h2M165 106h6M173 106h20M215 106h10M227 106h10M2 107h2M6 107h2M10 107h2M14 107h2M18 107h2M22 107h2M26 107h2M30 107h2M34 107h2M38 107h2M50 107h2M54 107h2M58 107h2M62 107h2M66 107h2M70 107h2M74 107h2M99 107h2M103 107h2M109 107h2M139 107h4M145 107h2M149 107h2M153 107h2M157 107h2M161 107h2M165 107h6M173 107h20M215 107h10M227 107h10M109 108h2M139 108h2M165 108h6M109 109h2M139 109h2M165 109h6M2 110h2M6 110h2M10 110h2M14 110h2M18 110h2M22 110h2M26 110h2M30 110h2M34 110h2M38 110h2M54 110h2M58 110h2M62 110h2M66 110h2M70 110h2M74 110h2M78 110h2M99 110h2M103 110h2M141 110h2M145 110h2M149 110h2M153 110h2M157 110h2M161 110h2M165 110h6M173 110h8M183 110h14M203 110h4M215 110h22M2 111h2M6 111h2M10 111h2M14 111h2M18 111h2M22 111h2M26 111h2M30 111h2M34 111h2M38 111h2M54 111h2M58 111h2M62 111h2M66 111h2M70 111h2M74 111h2M78 111h2M99 111h2M103 111h2M141 111h2M145 111h2M149 111h2M153 111h2M157 111h2M161 111h2M165 111h6M173 111h8M183 111h14M203 111h4M215 111h22M46 112h2M165 112h6M173 112h8M183 112h30M215 112h22M46 113h2M165 113h6M173 113h8M183 113h30M215 113h22M2 114h2M6 114h2M10 114h2M14 114h2M18 114h2M22 114h2M26 114h2M30 114h2M34 114h2M38 114h2M99 114h2M103 114h2M141 114h2M145 114h2M149 114h2M153 114h2M157 114h2M161 114h2M165 114h6M173 114h8M183 114h30M215 114h22M2 115h2M6 115h2M10 115h2M14 115h2M18 115h2M22 115h2M26 115h2M30 115h2M34 115h2M38 115h2M99 115h2M103 115h2M141 115h2M145 115h2M149 115h2M153 115h2M157 115h2M161 115h2M165 115h6M173 115h8M183 115h30M215 115h22M46 116h2M50 116h2M165 116h6M46 117h2M50 117h2M165 117h6M2 118h2M6 118h2M10 118h2M14 118h2M18 118h2M22 118h2M26 118h2M30 118h2M34 118h2M38 118h2M99 118h2M103 118h2M111 118h6M121 118h2M125 118h2M129 118h2M133 118h2M137 118h2M141 118h2M145 118h2M149 118h2M153 118h2M157 118h2M163 118h8M173 118h26M201 118h30M233 118h4M2 119h2M6 119h2M10 119h2M14 119h2M18 119h2M22 119h2M26 119h2M30 119h2M34 119h2M38 119h2M99 119h2M103 119h2M111 119h6M121 119h2M125 119h2M129 119h2M133 119h2M137 119h2M141 119h2M145 119h2M149 119h2M153 119h2M157 119h2M163 119h8M173 119h26M201 119h30M233 119h4" />
<path stroke="#8d697a" d="M117 14h2M161 14h2M165 14h2M209 14h2M117 15h2M161 15h2M165 15h2M209 15h2M121 16h8M153 16h8M169 16h8M201 16h8M121 17h8M153 17h8M169 17h8M201 17h8M121 18h2M125 18h2M155 18h2M159 18h2M169 18h2M173 18h2M203 18h2M207 18h2M121 19h2M125 19h2M155 19h2M159 19h2M169 19h2M173 19h2M203 19h2M207 19h2M121 20h6M155 20h6M169 20h6M203 20h6M121 21h6M155 21h6M169 21h6M203 21h6M121 22h2M125 22h2M155 22h2M159 22h2M169 22h2M173 22h2M203 22h2M121 23h2M125 23h2M155 23h2M159 23h2M169 23h2M173 23h2M203 23h2M121 24h2M155 24h2M159 24h2M169 24h2M203 24h2M121 25h2M155 25h2M159 25h2M169 25h2M203 25h2M121 26h2M125 26h2M159 26h2M169 26h2M173 26h2M121 27h2M125 27h2M159 27h2M169 27h2M173 27h2M121 28h2M155 28h2M159 28h2M169 28h2M203 28h2M121 29h2M155 29h2M159 29h2M169 29h2M203 29h2M121 30h2M159 30h2M169 30h2M121 31h2M159 31h2M169 31h2M121 32h2M159 32h2M169 32h2M121 33h2M159 33h2M169 33h2M121 34h2M159 34h2M169 34h2M121 35h2M159 35h2M169 35h2M121 36h2M159 36h2M169 36h2M121 37h2M159 37h2M169 37h2M159 38h2M159 39h2M131 46h20M179 46h2M197 46h2M131 47h20M179 47h2M197 47h2M36 48h2M129 48h24M177 48h4M197 48h4M36 49h2M129 49h24M177 49h4M197 49h4M26 52h2M30 52h2M26 53h2M30 53h2M26 54h6M26 55h6M42 60h2M185 60h2M42 61h2M185 61h2M42 62h2M185 62h8M42 63h2M185 63h8M111 64h4M135 64h4M111 65h4M135 65h4M111 70h4M135 70h4M111 71h4M135 71h4M111 72h2M137 72h2M111 73h2M137 73h2M111 74h2M137 74h2M111 75h2M137 75h2M8 76h4M40 76h2M111 76h2M137 76h2M141 76h16M8 77h4M40 77h2M111 77h2M137 77h2M141 77h16M4 78h6M40 78h2M111 78h6M133 78h6M143 78h2M147 78h2M151 78h2M155 78h6M4 79h6M40 79h2M111 79h6M133 79h6M143 79h2M147 79h2M151 79h2M155 79h6M2 80h10M40 80h2M111 80h2M137 80h2M141 80h22M2 81h10M40 81h2M111 81h2M137 81h2M141 81h22M2 82h4M8 82h2M40 82h2M111 82h2M137 82h2M143 82h2M147 82h2M151 82h2M155 82h2M159 82h4M2 83h4M8 83h2M40 83h2M111 83h2M137 83h2M143 83h2M147 83h2M151 83h2M155 83h2M159 83h4M0 84h12M18 84h16M40 84h2M141 84h24M0 85h12M18 85h16M40 85h2M141 85h24M0 86h2M4 86h2M8 86h2M12 86h2M16 86h2M20 86h2M24 86h2M28 86h2M32 86h2M36 86h2M40 86h2M143 86h2M147 86h2M151 86h2M155 86h2M159 86h2M163 86h2M197 86h2M211 86h2M0 87h2M4 87h2M8 87h2M12 87h2M16 87h2M20 87h2M24 87h2M28 87h2M32 87h2M36 87h2M40 87h2M143 87h2M147 87h2M151 87h2M155 87h2M159 87h2M163 87h2M197 87h2M211 87h2M0 88h42M141 88h24M0 89h42M141 89h24M0 90h2M4 90h2M8 90h2M12 90h2M16 90h2M20 90h2M24 90h2M28 90h2M32 90h2M36 90h2M40 90h2M64 90h2M72 90h2M143 90h2M147 90h2M151 90h2M155 90h2M159 90h2M163 90h2M0 91h2M4 91h2M8 91h2M12 91h2M16 91h2M20 91h2M24 91h2M28 91h2M32 91h2M36 91h2M40 91h2M64 91h2M72 91h2M143 91h2M147 91h2M151 91h2M155 91h2M159 91h2M163 91h2M0 92h42M64 92h2M72 92h2M141 92h24M0 93h42M64 93h2M72 93h2M141 93h24M0 94h2M4 94h2M8 94h2M12 94h2M16 94h2M20 94h2M24 94h2M28 94h2M32 94h2M36 94h2M40 94h2M64 94h2M72 94h2M143 94h2M147 94h2M151 94h2M155 94h2M159 94h2M163 94h2M0 95h2M4 95h2M8 95h2M12 95h2M16 95h2M20 95h2M24 95h2M28 95h2M32 95h2M36 95h2M40 95h2M64 95h2M72 95h2M143 95h2M147 95h2M151 95h2M155 95h2M159 95h2M163 95h2M0 96h42M64 96h2M72 96h2M141 96h24M0 97h42M64 97h2M72 97h2M141 97h24M0 98h2M4 98h2M8 98h2M12 98h2M16 98h2M20 98h2M24 98h2M28 98h2M32 98h2M36 98h2M40 98h2M64 98h2M72 98h2M143 98h2M147 98h2M151 98h2M155 98h2M159 98h2M163 98h2M0 99h2M4 99h2M8 99h2M12 99h2M16 99h2M20 99h2M24 99h2M28 99h2M32 99h2M36 99h2M40 99h2M64 99h2M72 99h2M143 99h2M147 99h2M151 99h2M155 99h2M159 99h2M163 99h2M0 100h42M64 100h2M72 100h2M141 100h24M0 101h42M64 101h2M72 101h2M141 101h24M0 102h2M4 102h2M8 102h2M12 102h2M16 102h2M20 102h2M24 102h2M28 102h2M32 102h2M36 102h2M40 102h2M143 102h2M147 102h2M151 102h2M155 102h2M159 102h2M163 102h2M0 103h2M4 103h2M8 103h2M12 103h2M16 103h2M20 103h2M24 103h2M28 103h2M32 103h2M36 103h2M40 103h2M143 103h2M147 103h2M151 103h2M155 103h2M159 103h2M163 103h2M0 104h42M111 104h2M137 104h2M141 104h24M0 105h42M111 105h2M137 105h2M141 105h24M0 106h2M4 106h2M8 106h2M12 106h2M16 106h2M20 106h2M24 106h2M28 106h2M32 106h2M36 106h2M40 106h2M111 106h28M143 106h2M147 106h2M151 106h2M155 106h2M159 106h2M163 106h2M0 107h2M4 107h2M8 107h2M12 107h2M16 107h2M20 107h2M24 107h2M28 107h2M32 107h2M36 107h2M40 107h2M111 107h28M143 107h2M147 107h2M151 107h2M155 107h2M159 107h2M163 107h2M0 108h42M111 108h28M141 108h24M0 109h42M111 109h28M141 109h24M0 110h2M4 110h2M8 110h2M12 110h2M16 110h2M20 110h2M24 110h2M28 110h2M32 110h2M36 110h2M40 110h2M143 110h2M147 110h2M151 110h2M155 110h2M159 110h2M163 110h2M0 111h2M4 111h2M8 111h2M12 111h2M16 111h2M20 111h2M24 111h2M28 111h2M32 111h2M36 111h2M40 111h2M143 111h2M147 111h2M151 111h2M155 111h2M159 111h2M163 111h2M0 112h42M141 112h24M0 113h42M141 113h24M0 114h2M4 114h2M8 114h2M12 114h2M16 114h2M20 114h2M24 114h2M28 114h2M32 114h2M36 114h2M40 114h2M143 114h2M147 114h2M151 114h2M155 114h2M159 114h2M163 114h2M0 115h2M4 115h2M8 115h2M12 115h2M16 115h2M20 115h2M24 115h2M28 115h2M32 115h2M36 115h2M40 115h2M143 115h2M147 115h2M151 115h2M155 115h2M159 115h2M163 115h2M0 116h42M125 116h8M141 116h24M0 117h42M125 117h8M141 117h24M0 118h2M4 118h2M8 118h2M12 118h2M16 118h2M20 118h2M24 118h2M28 118h2M32 118h2M36 118h2M40 118h2M117 118h4M123 118h2M127 118h2M131 118h2M135 118h2M139 118h2M143 118h2M147 118h2M151 118h2M155 118h2M159 118h4M0 119h2M4 119h2M8 119h2M12 119h2M16 119h2M20 119h2M24 119h2M28 119h2M32 119h2M36 119h2M40 119h2M117 119h4M123 119h2M127 119h2M131 119h2M135 119h2M139 119h2M143 119h2M147 119h2M151 119h2M155 119h2M159 119h4" />
<path stroke="#d08159" d="M123 18h2M127 18h2M153 18h2M157 18h2M171 18h2M175 18h2M201 18h2M205 18h2M123 19h2M127 19h2M153 19h2M157 19h2M171 19h2M175 19h2M201 19h2M205 19h2M127 20h2M153 20h2M175 20h2M201 20h2M127 21h2M153 21h2M175 21h2M201 21h2M123 22h2M127 22h2M153 22h2M157 22h2M171 22h2M175 22h2M201 22h2M123 23h2M127 23h2M153 23h2M157 23h2M171 23h2M175 23h2M201 23h2M123 24h6M153 24h2M157 24h2M171 24h6M201 24h2M123 25h6M153 25h2M157 25h2M171 25h6M201 25h2M123 26h2M127 26h2M153 26h6M171 26h2M175 26h2M201 26h4M123 27h2M127 27h2M153 27h6M171 27h2M175 27h2M201 27h4M123 28h6M153 28h2M157 28h2M171 28h6M201 28h2M123 29h6M153 29h2M157 29h2M171 29h6M201 29h2M123 30h6M153 30h6M171 30h6M201 30h4M123 31h6M153 31h6M171 31h6M201 31h4M123 32h6M153 32h6M171 32h6M201 32h4M123 33h6M153 33h6M171 33h6M201 33h4M123 34h6M153 34h6M171 34h6M201 34h4M123 35h6M153 35h6M171 35h6M201 35h4M123 36h6M153 36h6M171 36h6M201 36h4M123 37h6M153 37h6M171 37h6M201 37h4M121 38h8M153 38h6M169 38h8M201 38h4M121 39h8M153 39h6M169 39h8M201 39h4M30 40h2M121 40h8M153 40h8M169 40h8M201 40h4M30 41h2M121 41h8M153 41h8M169 41h8M201 41h4M26 42h2M66 42h6M121 42h2M125 42h4M153 42h4M159 42h2M169 42h2M173 42h4M183 42h2M193 42h2M201 42h4M26 43h2M66 43h6M121 43h2M125 43h4M153 43h4M159 43h2M169 43h2M173 43h4M183 43h2M193 43h2M201 43h4M30 44h2M36 44h2M64 44h2M72 44h2M121 44h8M153 44h8M169 44h8M183 44h2M193 44h2M201 44h4M30 45h2M36 45h2M64 45h2M72 45h2M121 45h8M153 45h8M169 45h8M183 45h2M193 45h2M201 45h4M26 46h2M36 46h2M64 46h2M72 46h2M121 46h2M125 46h4M153 46h4M159 46h2M169 46h2M173 46h4M181 46h4M193 46h4M201 46h4M26 47h2M36 47h2M64 47h2M72 47h2M121 47h2M125 47h4M153 47h4M159 47h2M169 47h2M173 47h4M181 47h4M193 47h4M201 47h4M30 48h6M64 48h2M72 48h2M121 48h6M155 48h6M169 48h6M181 48h2M195 48h2M203 48h2M30 49h6M64 49h2M72 49h2M121 49h6M155 49h6M169 49h6M181 49h2M195 49h2M203 49h2M26 50h2M30 50h2M64 50h2M72 50h2M121 50h2M127 50h2M153 50h2M159 50h2M169 50h2M175 50h2M179 50h4M195 50h4M201 50h2M26 51h2M30 51h2M64 51h2M72 51h2M121 51h2M127 51h2M153 51h2M159 51h2M169 51h2M175 51h2M179 51h4M195 51h4M201 51h2M28 52h2M44 52h22M72 52h2M123 52h4M155 52h4M171 52h4M179 52h2M183 52h2M195 52h4M203 52h2M28 53h2M44 53h22M72 53h2M123 53h4M155 53h4M171 53h4M179 53h2M183 53h2M195 53h4M203 53h2M24 54h2M42 54h2M64 54h2M72 54h2M181 54h2M185 54h2M189 54h2M193 54h4M24 55h2M42 55h2M64 55h2M72 55h2M181 55h2M185 55h2M189 55h2M193 55h4M42 56h2M64 56h2M72 56h2M187 56h2M191 56h2M42 57h2M64 57h2M72 57h2M187 57h2M191 57h2M42 58h2M64 58h2M72 58h2M187 58h4M42 59h2M64 59h2M72 59h2M187 59h4M44 60h22M72 60h2M187 60h6M44 61h22M72 61h2M187 61h6M44 62h22M72 62h2M44 63h22M72 63h2M42 64h2M64 64h2M72 64h2M42 65h2M64 65h2M72 65h2M42 66h2M64 66h2M72 66h2M42 67h2M64 67h2M72 67h2M42 68h2M50 68h2M58 68h2M64 68h2M72 68h2M42 69h2M50 69h2M58 69h2M64 69h2M72 69h2M42 70h2M64 70h2M72 70h2M201 70h8M42 71h2M64 71h2M72 71h2M201 71h8M42 72h2M64 72h2M72 72h2M42 73h2M64 73h2M72 73h2M42 74h2M50 74h2M58 74h2M64 74h2M72 74h2M42 75h2M50 75h2M58 75h2M64 75h2M72 75h2M42 76h2M64 76h2M72 76h2M197 76h2M211 76h2M42 77h2M64 77h2M72 77h2M197 77h2M211 77h2M42 78h2M64 78h2M72 78h2M117 78h16M195 78h4M211 78h4M42 79h2M64 79h2M72 79h2M117 79h16M195 79h4M211 79h4M42 80h2M50 80h2M58 80h2M64 80h2M72 80h2M113 80h24M195 80h6M209 80h6M42 81h2M50 81h2M58 81h2M64 81h2M72 81h2M113 81h24M195 81h6M209 81h6M42 82h2M64 82h2M72 82h2M113 82h6M121 82h2M125 82h2M129 82h2M133 82h4M193 82h4M201 82h8M213 82h4M42 83h2M64 83h2M72 83h2M113 83h6M121 83h2M125 83h2M129 83h2M133 83h4M193 83h4M201 83h8M213 83h4M42 84h2M64 84h2M72 84h2M111 84h6M119 84h2M123 84h2M127 84h2M131 84h2M135 84h4M193 84h4M201 84h8M213 84h4M42 85h2M64 85h2M72 85h2M111 85h6M119 85h2M123 85h2M127 85h2M131 85h2M135 85h4M193 85h4M201 85h8M213 85h4M42 86h2M50 86h2M58 86h2M64 86h2M72 86h2M111 86h4M117 86h2M133 86h2M137 86h2M201 86h8M42 87h2M50 87h2M58 87h2M64 87h2M72 87h2M111 87h4M117 87h2M133 87h2M137 87h2M201 87h8M42 88h2M64 88h2M72 88h2M111 88h2M115 88h2M131 88h2M135 88h4M42 89h2M64 89h2M72 89h2M111 89h2M115 89h2M131 89h2M135 89h4M42 90h2M111 90h4M133 90h2M137 90h2M42 91h2M111 91h4M133 91h2M137 91h2M42 92h2M50 92h2M58 92h2M66 92h6M111 92h2M135 92h4M42 93h2M50 93h2M58 93h2M66 93h6M111 93h2M135 93h4M42 94h2M66 94h6M111 94h4M133 94h2M137 94h2M193 94h4M213 94h4M42 95h2M66 95h6M111 95h4M133 95h2M137 95h2M193 95h4M213 95h4M42 96h22M66 96h6M111 96h2M135 96h4M195 96h2M213 96h2M42 97h22M66 97h6M111 97h2M135 97h4M195 97h2M213 97h2M42 98h2M66 98h6M111 98h4M117 98h2M129 98h2M133 98h2M137 98h2M197 98h2M211 98h2M42 99h2M66 99h6M111 99h4M117 99h2M129 99h2M133 99h2M137 99h2M197 99h2M211 99h2M42 100h2M66 100h6M111 100h2M115 100h2M119 100h2M123 100h2M127 100h2M131 100h2M135 100h4M197 100h2M211 100h2M42 101h2M66 101h6M111 101h2M115 101h2M119 101h2M123 101h2M127 101h2M131 101h2M135 101h4M197 101h2M211 101h2M111 102h8M121 102h2M125 102h2M129 102h2M133 102h6M197 102h4M209 102h4M111 103h8M121 103h2M125 103h2M129 103h2M133 103h6M197 103h4M209 103h4M113 104h24M201 104h10M113 105h24M201 105h10" />
<path stroke="#ffaa5e" d="M26 38h4M26 39h4M24 40h6M185 40h8M24 41h6M185 41h8M24 42h2M28 42h4M123 42h2M157 42h2M171 42h2M24 43h2M28 43h4M123 43h2M157 43h2M171 43h2M24 44h6M34 44h2M66 44h6M24 45h6M34 45h2M66 45h6M24 46h2M28 46h4M34 46h2M66 46h6M123 46h2M157 46h2M171 46h2M185 46h8M24 47h2M28 47h4M34 47h2M66 47h6M123 47h2M157 47h2M171 47h2M185 47h8M24 48h6M66 48h6M127 48h2M153 48h2M175 48h2M183 48h12M201 48h2M24 49h6M66 49h6M127 49h2M153 49h2M175 49h2M183 49h12M201 49h2M24 50h2M28 50h2M66 50h6M123 50h4M155 50h4M171 50h4M183 50h12M203 50h2M24 51h2M28 51h2M66 51h6M123 51h4M155 51h4M171 51h4M183 51h12M203 51h2M24 52h2M66 52h6M181 52h2M185 52h10M24 53h2M66 53h6M181 53h2M185 53h10M44 54h20M66 54h6M183 54h2M187 54h2M191 54h2M44 55h20M66 55h6M183 55h2M187 55h2M191 55h2M44 56h20M66 56h6M185 56h2M189 56h2M44 57h20M66 57h6M185 57h2M189 57h2M44 58h20M66 58h6M44 59h20M66 59h6M66 60h6M66 61h6M66 62h6M66 63h6M44 64h20M66 64h6M44 65h20M66 65h6M44 66h20M66 66h6M44 67h20M66 67h6M44 68h6M52 68h6M60 68h4M66 68h6M44 69h6M52 69h6M60 69h4M66 69h6M44 70h20M66 70h6M115 70h4M133 70h2M44 71h20M66 71h6M115 71h4M133 71h2M44 72h20M66 72h6M113 72h4M119 72h2M123 72h2M127 72h2M131 72h2M135 72h2M201 72h8M44 73h20M66 73h6M113 73h4M119 73h2M123 73h2M127 73h2M131 73h2M135 73h2M201 73h8M44 74h6M52 74h6M60 74h4M66 74h6M113 74h24M199 74h12M44 75h6M52 75h6M60 75h4M66 75h6M113 75h24M199 75h12M44 76h20M66 76h6M113 76h24M199 76h12M44 77h20M66 77h6M113 77h24M199 77h12M44 78h20M66 78h6M199 78h12M44 79h20M66 79h6M199 79h12M44 80h6M52 80h6M60 80h4M66 80h6M201 80h8M44 81h6M52 81h6M60 81h4M66 81h6M201 81h8M44 82h20M66 82h6M119 82h2M123 82h2M127 82h2M131 82h2M44 83h20M66 83h6M119 83h2M123 83h2M127 83h2M131 83h2M44 84h20M66 84h6M117 84h2M121 84h2M125 84h2M129 84h2M133 84h2M44 85h20M66 85h6M117 85h2M121 85h2M125 85h2M129 85h2M133 85h2M44 86h6M52 86h6M60 86h4M66 86h6M115 86h2M119 86h14M135 86h2M44 87h6M52 87h6M60 87h4M66 87h6M115 87h2M119 87h14M135 87h2M44 88h20M66 88h6M113 88h2M117 88h14M133 88h2M203 88h4M44 89h20M66 89h6M113 89h2M117 89h14M133 89h2M203 89h4M44 90h20M66 90h6M115 90h18M135 90h2M44 91h20M66 91h6M115 91h18M135 91h2M44 92h6M52 92h6M60 92h4M113 92h22M44 93h6M52 93h6M60 93h4M113 93h22M44 94h20M115 94h18M135 94h2M201 94h8M44 95h20M115 95h18M135 95h2M201 95h8M113 96h22M113 97h22M44 98h20M115 98h2M119 98h10M131 98h2M135 98h2M44 99h20M115 99h2M119 99h10M131 99h2M135 99h2M44 100h20M113 100h2M117 100h2M121 100h2M125 100h2M129 100h2M133 100h2M199 100h2M209 100h2M44 101h20M113 101h2M117 101h2M121 101h2M125 101h2M129 101h2M133 101h2M199 101h2M209 101h2M119 102h2M123 102h2M127 102h2M131 102h2M201 102h2M207 102h2M119 103h2M123 103h2M127 103h2M131 103h2M201 103h2M207 103h2" />
<path stroke="#ffd4a3" d="M185 42h8M185 43h8M185 44h2M191 44h2M185 45h2M191 45h2M119 70h14M193 70h2M215 70h2M119 71h14M193 71h2M215 71h2M117 72h2M121 72h2M125 72h2M129 72h2M133 72h2M195 72h2M213 72h2M117 73h2M121 73h2M125 73h2M129 73h2M133 73h2M195 73h2M213 73h2M197 74h2M211 74h2M197 75h2M211 75h2M195 76h2M213 76h2M195 77h2M213 77h2M191 84h2M217 84h2M191 85h2M217 85h2M191 86h2M217 86h2M191 87h2M217 87h2M193 88h2M201 88h2M207 88h2M215 88h2M193 89h2M201 89h2M207 89h2M215 89h2M195 90h2M213 90h2M195 91h2M213 91h2M199 92h2M209 92h2M199 93h2M209 93h2M199 96h12M199 97h12M201 98h2M207 98h2M201 99h2M207 99h2" />
<path stroke="#ffecd6" d="M187 44h4M187 45h4M193 72h2M215 72h2M193 73h2M215 73h2M193 74h4M213 74h4M193 75h4M213 75h4M193 76h2M215 76h2M193 77h2M215 77h2M199 82h2M211 82h2M199 83h2M211 83h2M193 86h4M213 86h4M193 87h4M213 87h4M195 88h6M209 88h6M195 89h6M209 89h6M197 90h6M207 90h6M197 91h6M207 91h6M201 92h8M201 93h8M203 98h4M203 99h4M203 100h4M203 101h4" />
</svg>