<svg xmlns="http://www.w3.org/2000/svg" viewBox="0 -0.5 33 42" shape-rendering="crispEdges">
<metadata>Made with Pixels to Svg https://codepen.io/shshaw/pen/XbxvNj</metadata>
<path stroke="#0a002e" d="M13 2h5M11 3h8M10 4h14M10 5h6M24 5h1M10 6h1M25 6h1M9 7h1M22 7h1M25 7h1M8 8h1M16 8h1M23 8h1M26 8h1M8 9h1M16 9h1M24 9h1M26 9h1M8 10h1M15 10h3M24 10h1M26 10h1M8 11h1M14 11h1M18 11h3M24 11h3M8 12h1M14 12h1M16 12h3M20 12h5M8 13h1M10 13h2M13 13h1M15 13h1M17 13h2M21 13h3M9 14h2M13 14h1M17 14h2M21 14h1M23 14h1M9 15h2M12 15h1M17 15h2M21 15h1M23 15h1M9 16h1M11 16h2M24 16h1M9 17h1M12 17h1M16 17h1M24 17h1M9 18h1M12 18h2M17 18h3M23 18h1M8 19h1M11 19h1M14 19h3M21 19h4M7 20h1M11 20h1M17 20h4M23 20h2M5 21h2M11 21h1M23 21h1M25 21h1M4 22h1M9 22h2M12 22h2M23 22h1M25 22h1M3 23h1M8 23h1M14 23h2M22 23h2M26 23h1M3 24h1M7 24h1M12 24h2M16 24h8M26 24h1M3 25h1M8 25h4M14 25h1M22 25h2M26 25h1M3 26h1M10 26h1M14 26h1M22 26h1M24 26h1M27 26h1M3 27h1M9 27h1M13 27h1M22 27h1M24 27h1M27 27h1M4 28h1M9 28h1M13 28h1M22 28h1M25 28h1M27 28h1M5 29h1M8 29h1M12 29h3M22 29h1M25 29h2M5 30h1M8 30h1M12 30h5M21 30h2M25 30h2M6 31h1M9 31h3M13 31h9M23 31h3M7 32h2M13 32h4M18 32h4M24 32h1M9 33h3M13 33h4M18 33h6M12 34h10M12 35h4M18 35h3M12 36h4M18 36h3M11 37h5M18 37h5M11 38h1M15 38h1M18 38h1M22 38h1M11 39h1M15 39h1M18 39h1M22 39h1M9 40h1M15 40h1M18 40h1M23 40h1M9 41h7M18 41h6" />
<path stroke="#8a78bf" d="M16 5h2M22 5h2M11 6h2M10 7h1M23 7h1M9 8h1M24 8h1M17 9h1M11 10h1M18 10h1M25 10h1M9 11h1M11 11h1M21 11h2M9 12h4M9 13h1M12 13h1M12 14h1M10 16h1M10 17h2M10 18h2M10 19h1M9 20h2M8 21h3M7 22h2M24 22h1M6 23h2M24 23h1M5 24h2M24 24h2M5 25h3M24 25h2M4 26h6M25 26h1M4 27h5M25 27h2M5 28h4M26 28h1M6 29h2M6 30h2M7 31h2M12 31h1M22 31h1M9 32h4M17 32h1M22 32h2M12 33h1M17 33h1" />
<path stroke="#6bc1c1" d="M18 5h4M13 6h12M11 7h11M24 7h1M10 8h6M17 8h6M25 8h1M9 9h7M18 9h6M25 9h1M9 10h2M12 10h3M19 10h5M10 11h1M12 11h2M23 11h1M13 12h1M9 19h1M8 20h1M7 21h1M24 21h1M5 22h2M4 23h2M25 23h1M4 24h1M4 25h1M26 26h1" />
<path stroke="#cf957a" d="M15 11h3M15 12h1M19 12h1M14 13h1M19 13h1M15 14h1M19 14h1M22 14h1M19 16h2M23 29h1M10 30h2M23 30h1" />
<path stroke="#ffffff" d="M16 13h1M20 13h1M16 14h1M20 14h1M16 15h1M20 15h1" />
<path stroke="#ffe1c9" d="M11 14h1M14 14h1M11 15h1M13 15h3M19 15h1M22 15h1M13 16h6M21 16h3M13 17h3M17 17h7M14 18h3M20 18h3M17 19h4M10 28h1M9 29h3M24 29h1M9 30h1M24 30h1" />
<path stroke="#ffc78a" d="M12 19h2M12 20h5M21 20h1M13 21h10M15 22h8M9 23h1M11 23h3M18 23h3M8 24h1M10 24h2" />
<path stroke="#e07452" d="M22 20h1M12 21h1M11 22h1M14 22h1M10 23h1M16 23h2M21 23h1M9 24h1M12 25h2M15 25h5M11 26h3M15 26h7M10 27h3M15 27h7M11 28h2M15 28h7M24 28h1M16 29h6M17 30h4M12 38h3M19 38h3M14 39h1M19 39h1M10 40h5M19 40h4" />
<path stroke="#ba2944" d="M14 24h2M20 25h2M23 26h1M14 27h1M23 27h1M14 28h1M23 28h1M15 29h1M12 39h2M20 39h2" />
</svg>